HIERARCHY
ROOT hips_JNT
{
  OFFSET 0 0 0
  CHANNELS 6 Xposition Yposition Zposition Zrotation Xrotation Yrotation
  JOINT spine_JNT
  {
    OFFSET 0 4.130373 -0.008512
    CHANNELS 6 Xposition Yposition Zposition Zrotation Xrotation Yrotation
    JOINT spine1_JNT
    {
      OFFSET 0 10.693992 -0.005568
      CHANNELS 6 Xposition Yposition Zposition Zrotation Xrotation Yrotation
      JOINT spine2_JNT
      {
        OFFSET 0 10.153212 -0.012624
        CHANNELS 6 Xposition Yposition Zposition Zrotation Xrotation Yrotation
        JOINT neck_JNT
        {
          OFFSET 0 17.065638 0.263754
          CHANNELS 6 Xposition Yposition Zposition Zrotation Xrotation Yrotation
          JOINT head_JNT
          {
            OFFSET 0 8.137577 0.007754
            CHANNELS 6 Xposition Yposition Zposition Zrotation Xrotation Yrotation
            JOINT r_eye_LOC
            {
              OFFSET -5.100100 12.306628 9.664178
              CHANNELS 6 Xposition Yposition Zposition Zrotation Xrotation Yrotation
              End Site
              {
                OFFSET 0 0 0
              }
            }
            JOINT l_eye_LOC
            {
              OFFSET 5.100100 12.306628 9.664178
              CHANNELS 6 Xposition Yposition Zposition Zrotation Xrotation Yrotation
              End Site
              {
                OFFSET 0 0 0
              }
            }
          }
        }
        JOINT r_shoulder_JNT
        {
          OFFSET -2.886765 12.539096 -0.534970
          CHANNELS 6 Xposition Yposition Zposition Zrotation Xrotation Yrotation
          JOINT r_arm_JNT
          {
            OFFSET -10.265322 -0.000050 -0.000020
            CHANNELS 6 Xposition Yposition Zposition Zrotation Xrotation Yrotation
            JOINT r_forearm_JNT
            {
              OFFSET -25.572863 0 -0.000009
              CHANNELS 6 Xposition Yposition Zposition Zrotation Xrotation Yrotation
              JOINT r_hand_JNT
              {
                OFFSET -19.807005 -0.346000 -0.000001
                CHANNELS 6 Xposition Yposition Zposition Zrotation Xrotation Yrotation
                JOINT r_handThumb1_JNT
                {
                  OFFSET -1.817488 -1.260972 3.61709
                  CHANNELS 6 Xposition Yposition Zposition Zrotation Xrotation Yrotation
                  JOINT r_handThumb2_JNT
                  {
                    OFFSET -2.639243 -0.023618 -0.053143
                    CHANNELS 6 Xposition Yposition Zposition Zrotation Xrotation Yrotation
                    JOINT r_handThumb3_JNT
                    {
                      OFFSET -2.698978 -0.823875 0.000033
                      CHANNELS 6 Xposition Yposition Zposition Zrotation Xrotation Yrotation
                      End Site
                      {
                        OFFSET -3.8753 -0.611784 -0.000028
                      }
                    }
                  }
                }
                JOINT r_handIndex1_JNT
                {
                  OFFSET -8.25189 -0.108337 3.7491
                  CHANNELS 6 Xposition Yposition Zposition Zrotation Xrotation Yrotation
                  JOINT r_handIndex2_JNT
                  {
                    OFFSET -3.89614 0.2885 -0.000463
                    CHANNELS 6 Xposition Yposition Zposition Zrotation Xrotation Yrotation
                    JOINT r_handIndex3_JNT
                    {
                      OFFSET -2.318387 0.159236 -0.000487
                      CHANNELS 6 Xposition Yposition Zposition Zrotation Xrotation Yrotation
                      End Site
                      {
                        OFFSET -2.565999 -0.000006 -0.000002
                      }
                    }
                  }
                }
                JOINT r_handMiddle1_JNT
                {
                  OFFSET -9.047189 0.040404 1.280809
                  CHANNELS 6 Xposition Yposition Zposition Zrotation Xrotation Yrotation
                  JOINT r_handMiddle2_JNT
                  {
                    OFFSET -3.918013 0.058125 -0.000245
                    CHANNELS 6 Xposition Yposition Zposition Zrotation Xrotation Yrotation
                    JOINT r_handMiddle3_JNT
                    {
                      OFFSET -2.517173 0.020933 -0.000344
                      CHANNELS 6 Xposition Yposition Zposition Zrotation Xrotation Yrotation
                      End Site
                      {
                        OFFSET -3.280997 0.000054 0.000001
                      }
                    }
                  }
                }
                JOINT r_handRing1_JNT
                {
                  OFFSET -8.770376 -0.316066 -1.40674
                  CHANNELS 6 Xposition Yposition Zposition Zrotation Xrotation Yrotation
                  JOINT r_handRing2_JNT
                  {
                    OFFSET -3.670816 0.003664 0.000012
                    CHANNELS 6 Xposition Yposition Zposition Zrotation Xrotation Yrotation
                    JOINT r_handRing3_JNT
                    {
                      OFFSET -2.391655 0.005686 -0.000005
                      CHANNELS 6 Xposition Yposition Zposition Zrotation Xrotation Yrotation
                      End Site
                      {
                        OFFSET -2.882462 0.000030 0.000007
                      }
                    }
                  }
                }
                JOINT r_handPinky1_JNT
                {
                  OFFSET -7.380626 -1.009364 -3.361094
                  CHANNELS 6 Xposition Yposition Zposition Zrotation Xrotation Yrotation
                  JOINT r_handPinky2_JNT
                  {
                    OFFSET -2.923373 0.065774 -0.000015
                    CHANNELS 6 Xposition Yposition Zposition Zrotation Xrotation Yrotation
                    JOINT r_handPinky3_JNT
                    {
                      OFFSET -1.903112 -0.013694 0.000004
                      CHANNELS 6 Xposition Yposition Zposition Zrotation Xrotation Yrotation
                      End Site
                      {
                        OFFSET -2.825637 0.000063 0.00002
                      }
                    }
                  }
                }
              }
            }
          }
        }
        JOINT l_shoulder_JNT
        {
          OFFSET 2.886657 12.539132 -0.534974
          CHANNELS 6 Xposition Yposition Zposition Zrotation Xrotation Yrotation
          JOINT l_arm_JNT
          {
            OFFSET 10.265323 0.000035 0.000019
            CHANNELS 6 Xposition Yposition Zposition Zrotation Xrotation Yrotation
            JOINT l_forearm_JNT
            {
              OFFSET 25.572872 0.000003 0.000003
              CHANNELS 6 Xposition Yposition Zposition Zrotation Xrotation Yrotation
              JOINT l_hand_JNT
              {
                OFFSET 19.806792 -0.345714 0.000008
                CHANNELS 6 Xposition Yposition Zposition Zrotation Xrotation Yrotation
                JOINT l_handThumb1_JNT
                {
                  OFFSET 1.812944 -1.252033 3.615281
                  CHANNELS 6 Xposition Yposition Zposition Zrotation Xrotation Yrotation
                  JOINT l_handThumb2_JNT
                  {
                    OFFSET 2.639235 -0.023623 -0.053106
                    CHANNELS 6 Xposition Yposition Zposition Zrotation Xrotation Yrotation
                    JOINT l_handThumb3_JNT
                    {
                      OFFSET 2.817296 0.161941 -0.000019
                      CHANNELS 6 Xposition Yposition Zposition Zrotation Xrotation Yrotation
                      End Site
                      {
                        OFFSET 3.923259 0.000003 -0.000017
                      }
                    }
                  }
                }
                JOINT l_handIndex1_JNT
                {
                  OFFSET 8.246994 -0.097605 3.748598
                  CHANNELS 6 Xposition Yposition Zposition Zrotation Xrotation Yrotation
                  JOINT l_handIndex2_JNT
                  {
                    OFFSET 3.896263 0.286875 -0.000004
                    CHANNELS 6 Xposition Yposition Zposition Zrotation Xrotation Yrotation
                    JOINT l_handIndex3_JNT
                    {
                      OFFSET 2.318424 0.158303 -0.000001
                      CHANNELS 6 Xposition Yposition Zposition Zrotation Xrotation Yrotation
                      End Site
                      {
                        OFFSET 2.566022 -0.000023 0.000009
                      }
                    }
                  }
                }
                JOINT l_handMiddle1_JNT
                {
                  OFFSET 9.042166 0.05456 1.280483
                  CHANNELS 6 Xposition Yposition Zposition Zrotation Xrotation Yrotation
                  JOINT l_handMiddle2_JNT
                  {
                    OFFSET 3.918027 0.055923 -0.000003
                    CHANNELS 6 Xposition Yposition Zposition Zrotation Xrotation Yrotation
                    JOINT l_handMiddle3_JNT
                    {
                      OFFSET 2.517179 0.019623 -0.000001
                      CHANNELS 6 Xposition Yposition Zposition Zrotation Xrotation Yrotation
                      End Site
                      {
                        OFFSET 3.281309 0 0.000006
                      }
                    }
                  }
                }
                JOINT l_handRing1_JNT
                {
                  OFFSET 8.765368 -0.298586 -1.407511
                  CHANNELS 6 Xposition Yposition Zposition Zrotation Xrotation Yrotation
                  JOINT l_handRing2_JNT
                  {
                    OFFSET 3.670795 0.003694 0.000002
                    CHANNELS 6 Xposition Yposition Zposition Zrotation Xrotation Yrotation
                    JOINT l_handRing3_JNT
                    {
                      OFFSET 2.391658 0.005747 0.000001
                      CHANNELS 6 Xposition Yposition Zposition Zrotation Xrotation Yrotation
                      End Site
                      {
                        OFFSET 2.882434 0.000006 0
                      }
                    }
                  }
                }
                JOINT l_handPinky1_JNT
                {
                  OFFSET 7.375719 -0.989721 -3.362722
                  CHANNELS 6 Xposition Yposition Zposition Zrotation Xrotation Yrotation
                  JOINT l_handPinky2_JNT
                  {
                    OFFSET 2.923453 0.065764 0.000007
                    CHANNELS 6 Xposition Yposition Zposition Zrotation Xrotation Yrotation
                    JOINT l_handPinky3_JNT
                    {
                      OFFSET 1.903052 -0.013621 0.000002
                      CHANNELS 6 Xposition Yposition Zposition Zrotation Xrotation Yrotation
                      End Site
                      {
                        OFFSET 2.8257 -0.000007 0.000006
                      }
                    }
                  }
                }
              }
            }
          }
        }
      }
    }
  }
}
MOTION
Frames: 3
Frame Time: 0.033333335
 0 0 0 -0 -3.9980717 0 0 4.130373150110245 -0.008511960913892835 -0 2.399227 0 0 10.693991929292679 -0.005568470805883408 -0 -2.0809264 0 0 10.153211653232574 -0.012623937800526619 -0 -6.511725 0 0 17.065638303756714 0.2637537196278572 -0 24.405434 0 0 8.137577027082443 0.007754378020763397 -0 -9.789984 0 -5.09990006685257 12.30660229921341 9.664176404476166 0.0  0 0 5.100099742412567 12.306628376245499 9.664177894592285 0.0  0 0 -2.8867654502391815 12.539096176624298 -0.5349699407815933 -0 5.6046824 0 -10.265322029590607 -5.0105154514312744e-05 -2.0209699869155884e-05 81.00248 13.267041 -6.5383043 -25.572863221168518 0 -9.266659617424011e-06 0.20987293 -1.4271953 35.426613 -19.807004928588867 -0.3460004925727844 -1.1175870895385742e-06 -0.034975693 -0.15123405 18.996017 -1.8174875527620316 -1.2609715573489666 3.6170899868011475 -54.941658 34.166676 75.51205 -2.639242820441723 -0.02361796796321869 -0.05314350128173828 -5.6681128 0.11390707 0.006150372 -2.6989782229065895 -0.8238755166530609 3.3155083656311035e-05 11.33635 -0.22687156 0.021492898 -8.251890540122986 -0.10833702981472015 3.7491004914045334 2.1844974 4.0655403 0.052528106 -3.896140307188034 0.28849951922893524 -0.0004634261131286621 -7.0866494 0.00084011327 2.0917454e-05 -2.318386733531952 0.15923604369163513 -0.0004872214049100876 -7.0866494 0.00084011327 2.0917454e-05 -9.047189354896545 0.04040375351905823 1.280809286981821 0.2211443 4.5706806 -0.59808725 -3.9180129766464233 0.05812495946884155 -0.00024461187422275543 -0 0 0 -2.5171734392642975 0.02093277871608734 -0.00034389086067676544 -5.669254 0.00035516985 1.4941039e-05 -8.770376443862915 -0.31606629490852356 -1.4067398384213448 1.6824756 7.133791 -8.527696 -3.670816123485565 0.0036638230085372925 1.2177042663097382e-05 -0 0 -0 -2.391655370593071 0.005685538053512573 -5.3318217396736145e-06 -5.6692533 -2.7320757e-05 -1.0672171e-06 -7.380625605583191 -1.0093636810779572 -3.361094370484352 0.4503494 -1.4771514 -23.050568 -2.923373319208622 0.0657740980386734 -1.4621764421463013e-05 -0 0 0 -1.9031122326850891 -0.013693980872631073 3.91155481338501e-06 -0 0 0 2.8866566717624664 12.539131939411163 -0.5349736660718918 -0 5.555662 0 10.265323519706726 3.455206751823425e-05 1.9371509552001953e-05 -81.01413 13.228171 6.589951 25.572872161865234 2.9802322387695312e-06 2.8870999813079834e-06 -0.24120301 -1.3988296 -35.42686 19.806791841983795 -0.34571439027786255 7.82310962677002e-06 0.034975693 -0.15123405 -18.996017 1.8129440024495125 -1.2520326301455498 3.6152806133031845 69.580925 36.57235 -84.167984 2.639234811067581 -0.023623276501893997 -0.053105875849723816 -14.17049 -0.28238735 -0.033815414 2.817295677959919 0.16194097697734833 -1.8812716007232666e-05 11.336357 0.22650957 -0.023506524 8.246994018554688 -0.09760484099388123 3.748597949743271 -2.1714532 4.0786405 -0.2303332 3.8962632417678833 0.28687529265880585 -3.725290298461914e-06 7.0866494 6.8301892e-06 0 2.3184238001704216 0.1583034172654152 -1.3969838619232178e-06 7.0866494 6.8301892e-06 0 9.0421661734581 0.0545598566532135 1.280482579022646 -0.06321607 -4.4076576 0.29029033 3.9180271327495575 0.05592331290245056 -2.561137080192566e-06 -2.834623 0 0 2.51717921346426 0.019623152911663055 -8.847564458847046e-07 5.669254 0 -4.2688683e-07 8.765368163585663 -0.2985857427120209 -1.4075106009840965 -1.6089334 6.788614 8.343684 3.670794889330864 0.003693997859954834 2.2584572434425354e-06 -0 0 0 2.39165760576725 0.005747005343437195 9.080395102500916e-07 5.669254 -1.36603785e-05 4.2688683e-07 7.375718653202057 -0.9897205978631973 -3.3627215772867203 -0.45490938 -1.4746925 22.874407 2.923453226685524 0.06576422601938248 7.264316082000732e-06 -0 0 0 1.9030522555112839 -0.01362096518278122 2.468004822731018e-06 -0 0 0
 0 0 0 -0 -3.9980717 0 0 4.130373150110245 -0.008511960913892835 -0 2.399227 0 0 10.693991929292679 -0.005568470805883408 -0.01259758 -2.08094 0.076721504 0 10.153211653232574 -0.012623937800526619 -0 -6.511725 0 0 17.065638303756714 0.2637537196278572 -0 24.405434 0 0 8.137577027082443 0.007754378020763397 0.0361688 -9.793494 -0.02849108 -5.09990006685257 12.30660229921341 9.664176404476166 0.0  0 0 5.100099742412567 12.306628376245499 9.664177894592285 0.0  0 0 -2.8867654502391815 12.539096176624298 -0.5349699407815933 -0 5.6046824 0 -10.265322029590607 -5.0105154514312744e-05 -2.0209699869155884e-05 80.883446 13.275661 -6.023858 -25.572863221168518 0 -9.266659617424011e-06 0.09792101 -1.4411905 35.509697 -19.807004928588867 -0.3460004925727844 -1.1175870895385742e-06 0.11726069 0.040892344 18.996016 -1.8174875527620316 -1.2609715573489666 3.6170899868011475 -55.146477 34.360996 75.53627 -2.639242820441723 -0.02361796796321869 -0.05314350128173828 -5.6681128 0.11390707 0.006150372 -2.6989782229065895 -0.8238755166530609 3.3155083656311035e-05 11.33635 -0.22687156 0.021492898 -8.251890540122986 -0.10833702981472015 3.7491004914045334 2.1969616 4.052563 -0.123557806 -3.896140307188034 0.28849951922893524 -0.0004634261131286621 -7.0866494 0.00084011327 2.0917454e-05 -2.318386733531952 0.15923604369163513 -0.0004872214049100876 -7.0866494 0.00084011327 2.0917454e-05 -9.047189354896545 0.04040375351905823 1.280809286981821 0.2211443 4.5706806 -0.59808725 -3.9180129766464233 0.05812495946884155 -0.00024461187422275543 -0 0 0 -2.5171734392642975 0.02093277871608734 -0.00034389086067676544 -5.669254 0.00035516985 1.4941039e-05 -8.770376443862915 -0.31606629490852356 -1.4067398384213448 1.6346654 6.9629545 -8.346892 -3.670816123485565 0.0036638230085372925 1.2177042663097382e-05 -0 0 -0 -2.391655370593071 0.005685538053512573 -5.3318217396736145e-06 -5.6692533 -2.7320757e-05 -1.0672171e-06 -7.380625605583191 -1.0093636810779572 -3.361094370484352 0.4594173 -1.4723771 -22.698236 -2.923373319208622 0.0657740980386734 -1.4621764421463013e-05 -0 0 0 -1.9031122326850891 -0.013693980872631073 3.91155481338501e-06 -0 0 0 2.8866566717624664 12.539131939411163 -0.5349736660718918 -0 5.555662 0 10.265323519706726 3.455206751823425e-05 1.9371509552001953e-05 -80.99762 13.0776 6.716576 25.572872161865234 2.9802322387695312e-06 2.8870999813079834e-06 -0.1640048 -1.384008 -35.796803 19.806791841983795 -0.34571439027786255 7.82310962677002e-06 -0.43291703 -0.0034082644 -18.631077 1.8129440024495125 -1.2520326301455498 3.6152806133031845 69.62272 36.737873 -84.13222 2.639234811067581 -0.023623276501893997 -0.053105875849723816 -15.58755 -0.3099745 -0.041014433 2.817295677959919 0.16194097697734833 -1.8812716007232666e-05 11.336357 0.22650957 -0.023506524 8.246994018554688 -0.09760484099388123 3.748597949743271 -2.1839585 4.065766 -0.054236077 3.8962632417678833 0.28687529265880585 -3.725290298461914e-06 7.0866494 6.8301892e-06 0 2.3184238001704216 0.1583034172654152 -1.3969838619232178e-06 7.0866494 6.8301892e-06 0 9.0421661734581 0.0545598566532135 1.280482579022646 -0.15114793 -4.4076576 0.2902903 3.9180271327495575 0.05592331290245056 -2.561137080192566e-06 -2.834623 0 0 2.51717921346426 0.019623152911663055 -8.847564458847046e-07 5.669254 0 -4.2688683e-07 8.765368163585663 -0.2985857427120209 -1.4075106009840965 -1.5879653 6.7918034 8.166344 3.670794889330864 0.003693997859954834 2.2584572434425354e-06 -0 0 0 2.39165760576725 0.005747005343437195 9.080395102500916e-07 5.669254 -1.36603785e-05 4.2688683e-07 7.375718653202057 -0.9897205978631973 -3.3627215772867203 -0.4639628 -1.4698977 22.522072 2.923453226685524 0.06576422601938248 7.264316082000732e-06 -0 0 0 1.9030522555112839 -0.01362096518278122 2.468004822731018e-06 -0 0 0
 0 0 0 -0 -3.9980717 0 0 4.130373150110245 -0.008511960913892835 -0 2.399227 0 0 10.693991929292679 -0.005568470805883408 -0.04478347 -2.084526 0.23003642 0 10.153211653232574 -0.012623937800526619 -0 -6.511725 0 0 17.065638303756714 0.2637537196278572 -0 24.405434 0 0 8.137577027082443 0.007754378020763397 0.12709486 -9.793576 -0.07335076 -5.09990006685257 12.30660229921341 9.664176404476166 0.0  0 0 5.100099742412567 12.306628376245499 9.664177894592285 0.0  0 0 -2.8867654502391815 12.539096176624298 -0.5349699407815933 -0 5.6046824 0 -10.265322029590607 -5.0105154514312744e-05 -2.0209699869155884e-05 80.64209 13.28872 -5.0300384 -25.572863221168518 0 -9.266659617424011e-06 -0.12149882 -1.4608545 35.668625 -19.807004928588867 -0.3460004925727844 -1.1175870895385742e-06 0.43669328 0.42054158 18.994713 -1.8174875527620316 -1.2609715573489666 3.6170899868011475 -55.549915 34.71935 75.62799 -2.639242820441723 -0.02361796796321869 -0.05314350128173828 -5.6681128 0.11390707 0.006150372 -2.6989782229065895 -0.8238755166530609 3.3155083656311035e-05 11.33635 -0.22687156 0.021492898 -8.251890540122986 -0.10833702981472015 3.7491004914045334 2.2093852 4.0395446 -0.29963762 -3.896140307188034 0.28849951922893524 -0.0004634261131286621 -7.0866494 0.00084011327 2.0917454e-05 -2.318386733531952 0.15923604369163513 -0.0004872214049100876 -7.0866494 0.00084011327 2.0917454e-05 -9.047189354896545 0.04040375351905823 1.280809286981821 0.2211443 4.5706806 -0.59808725 -3.9180129766464233 0.05812495946884155 -0.00024461187422275543 -0 0 0 -2.5171734392642975 0.02093277871608734 -0.00034389086067676544 -5.669254 0.00035516985 1.4941039e-05 -8.770376443862915 -0.31606629490852356 -1.4067398384213448 1.6131539 6.966233 -8.16949 -3.670816123485565 0.0036638230085372925 1.2177042663097382e-05 -0 0 -0 -2.391655370593071 0.005685538053512573 -5.3318217396736145e-06 -5.6692533 -2.7320757e-05 -1.0672171e-06 -7.380625605583191 -1.0093636810779572 -3.361094370484352 0.40148622 -1.6304208 -22.343748 -2.923373319208622 0.0657740980386734 -1.4621764421463013e-05 -0 0 0 -1.9031122326850891 -0.013693980872631073 3.91155481338501e-06 -0 0 0 2.8866566717624664 12.539131939411163 -0.5349736660718918 -0 5.555662 0 10.265323519706726 3.455206751823425e-05 1.9371509552001953e-05 -81.004135 12.782317 6.981242 25.572872161865234 2.9802322387695312e-06 2.8870999813079834e-06 -0.0023854435 -1.3470362 -36.508392 19.806791841983795 -0.34571439027786255 7.82310962677002e-06 -1.3376294 0.29605454 -17.934502 1.8129440024495125 -1.2520326301455498 3.6152806133031845 69.71006 37.025097 -84.09825 2.639234811067581 -0.023623276501893997 -0.053105875849723816 -15.58755 -0.3099745 -0.041014433 2.817295677959919 0.16194097697734833 -1.8812716007232666e-05 11.336357 0.22650957 -0.023506524 8.246994018554688 -0.09760484099388123 3.748597949743271 -2.2843554 4.0528636 0.121855274 3.8962632417678833 0.28687529265880585 -3.725290298461914e-06 7.0866494 6.8301892e-06 0 2.3184238001704216 0.1583034172654152 -1.3969838619232178e-06 7.0866494 6.8301892e-06 0 9.0421661734581 0.0545598566532135 1.280482579022646 -0.15114793 -4.4076576 0.2902903 3.9180271327495575 0.05592331290245056 -2.561137080192566e-06 -2.834623 0 0 2.51717921346426 0.019623152911663055 -8.847564458847046e-07 5.669254 0 -4.2688683e-07 8.765368163585663 -0.2985857427120209 -1.4075106009840965 -1.4790568 6.7949524 7.989006 3.670794889330864 0.003693997859954834 2.2584572434425354e-06 -0 0 0 2.39165760576725 0.005747005343437195 9.080395102500916e-07 5.669254 -1.36603785e-05 4.2688683e-07 7.375718653202057 -0.9897205978631973 -3.3627215772867203 -0.4065209 -1.6280986 22.16757 2.923453226685524 0.06576422601938248 7.264316082000732e-06 -0 0 0 1.9030522555112839 -0.01362096518278122 2.468004822731018e-06 -0 0 0
